<svg width="125" height="30" viewBox="0 0 125 30" fill="none" xmlns="http://www.w3.org/2000/svg">
<g clip-path="url(#clip0_7601_6991)">
<g clip-path="url(#clip1_7601_6991)">
<g clip-path="url(#clip2_7601_6991)">
<g clip-path="url(#clip3_7601_6991)">
<g clip-path="url(#clip4_7601_6991)">
<g clip-path="url(#clip5_7601_6991)">
<g clip-path="url(#clip6_7601_6991)">
<g clip-path="url(#clip7_7601_6991)">
<g clip-path="url(#clip8_7601_6991)">
<path d="M0.46132 -0.786629H9.51454C12.6519 -0.786629 14.9332 -0.578948 16.3583 -0.163585C17.7781 0.246087 18.7938 0.73542 19.4053 1.30441C20.7613 2.55619 21.4393 4.47653 21.4393 7.06543C21.4393 9 20.4688 10.835 18.5279 12.5704C21.0006 13.9075 22.2369 16.3969 22.2369 20.0384C22.2369 22.8833 21.3675 24.9943 19.6286 26.3713C17.8844 27.7539 15.2841 28.5163 11.8277 28.6586H0.46132L0.0625 25.1166C0.408144 24.633 1.13931 24.1636 2.25601 23.7084V4.20626C1.1659 3.77951 0.434732 3.29587 0.0625 2.75533L0.46132 -0.786629ZM11.5485 15.899H7.99902V24.0071H10.7509C12.5589 24.0071 13.9281 23.7226 14.8587 23.1536C15.7893 22.5846 16.2546 21.5604 16.2546 20.0811C16.2546 18.6017 15.8903 17.5348 15.1618 16.8805C14.428 16.2262 13.2236 15.899 11.5485 15.899ZM10.0729 3.86486H7.99902V11.2475H11.2693C12.6253 11.2475 13.6623 10.8777 14.3801 10.138C15.098 9.39829 15.457 8.4936 15.457 7.42389C15.457 6.35988 15.2044 5.55761 14.6992 5.01707C14.194 4.47653 13.6091 4.14936 12.9444 4.03556C12.2797 3.92176 11.3225 3.86486 10.0729 3.86486ZM45.8471 17.99C45.8471 21.7169 45.0547 24.4822 43.4701 26.2859C41.8908 28.0953 39.333 29 35.7968 29C32.2606 29 29.7799 28.1095 28.3548 26.3286C26.935 24.5533 26.2251 21.7738 26.2251 17.99V4.20626C25.2148 3.80796 24.4836 3.32432 24.0316 2.75533L24.4304 -0.786629H33.7628L34.1616 2.75533C33.7362 3.29587 33.005 3.77951 31.9681 4.20626V18.1607C31.9681 20.2091 32.2792 21.7226 32.9014 22.7013C33.5288 23.6856 34.6535 24.1778 36.2754 24.1778C37.8972 24.1778 39.0405 23.6714 39.7052 22.6586C40.3699 21.6515 40.7023 20.1522 40.7023 18.1607V4.20626C39.6122 3.77951 38.881 3.29587 38.5088 2.75533L38.9076 -0.786629H47.6417L48.0406 2.75533C47.6152 3.29587 46.884 3.77951 45.8471 4.20626V17.99ZM71.5311 7.83357C71.5311 9.76813 70.9647 11.3898 69.8321 12.6984C68.7048 14.0071 67.2903 15.0028 65.5886 15.6856C66.9181 16.2831 67.7955 17.0085 68.2209 17.862L71.1322 23.7937C72.3819 24.2489 73.2327 24.7752 73.6847 25.3727L73.2859 28.6586H66.5458L61.9594 18.2034C61.534 17.1508 61.0394 16.6245 60.4758 16.6245H57.8834V23.4523C59.8297 23.9075 61.0421 24.4623 61.5207 25.1166L61.1219 28.6586H50.3457L49.9469 25.1166C50.2979 24.633 51.0291 24.1636 52.1404 23.7084V4.20626C51.0503 3.77951 50.3192 3.29587 49.9469 2.75533L50.3457 -0.786629H60.5236C64.246 -0.72973 67.0111 -0.0896162 68.8191 1.13371C70.6271 2.35704 71.5311 4.59033 71.5311 7.83357ZM60.2445 3.86486H57.8834V11.973H60.1647C61.9674 11.973 63.3154 11.6799 64.2087 11.0939C65.1021 10.5135 65.5488 9.46941 65.5488 7.96159C65.5488 6.45377 65.0968 5.3926 64.1928 4.77809C63.2888 4.16927 61.9727 3.86486 60.2445 3.86486ZM83.8067 -1H89.2706L97.2071 23.623C98.3238 24.0498 99.1081 24.5476 99.5601 25.1166L99.1613 28.6586H89.8289L89.4301 25.1166C89.7492 24.6614 90.3873 24.2347 91.3445 23.8364L90.2676 20.2518H82.2912L81.2942 23.7084C82.2248 24.1067 82.9161 24.5761 83.368 25.1166L82.9692 28.6586H73.8761L73.4773 25.1166C73.9559 24.4623 74.8466 23.9218 76.1494 23.495L83.8067 -1ZM86.5187 4.97439H85.9604C85.9604 6.70981 85.628 8.72973 84.9633 11.0341L83.4079 16.3257H89.1111L87.5955 11.1195C86.984 9.12802 86.6384 7.32148 86.5586 5.69986L86.5187 4.97439ZM124.766 25.1166L124.367 28.6586H117.746L108.893 13.2959L115.553 3.82219C114.808 3.45234 114.29 3.06828 113.997 2.66998L114.396 -0.786629H123.489L123.888 2.66998C123.516 3.12518 122.825 3.58037 121.814 4.03556L114.915 13.1252L121.216 23.2816C122.944 23.6799 124.127 24.2916 124.766 25.1166ZM101.116 -0.786629H110.448L110.847 2.75533C110.421 3.29587 109.69 3.77951 108.653 4.20626V23.7084C109.717 24.1636 110.448 24.633 110.847 25.1166L110.448 28.6586H101.116L100.717 25.1166C101.062 24.633 101.794 24.1636 102.91 23.7084V4.20626C101.82 3.77951 101.089 3.29587 100.717 2.75533L101.116 -0.786629Z" fill="#D7B586"/>
</g>
</g>
</g>
</g>
</g>
</g>
</g>
</g>
</g>
<defs>
<clipPath id="clip0_7601_6991">
<rect width="125" height="30" fill="white" transform="translate(-0.0078125)"/>
</clipPath>
<clipPath id="clip1_7601_6991">
<rect width="125" height="30" fill="white" transform="translate(-0.0859375 -1.01562)"/>
</clipPath>
<clipPath id="clip2_7601_6991">
<rect width="124.711" height="29.9728" fill="white" transform="translate(0.0546875 -1)"/>
</clipPath>
<clipPath id="clip3_7601_6991">
<rect width="124.711" height="29.9728" fill="white" transform="translate(0.0546875 -1)"/>
</clipPath>
<clipPath id="clip4_7601_6991">
<rect width="124.711" height="29.9728" fill="white" transform="translate(0.0546875 -1)"/>
</clipPath>
<clipPath id="clip5_7601_6991">
<rect width="124.711" height="29.9728" fill="white" transform="translate(0.0546875 -1)"/>
</clipPath>
<clipPath id="clip6_7601_6991">
<rect width="124.711" height="29.9728" fill="white" transform="translate(0.0546875 -1)"/>
</clipPath>
<clipPath id="clip7_7601_6991">
<rect width="124.711" height="29.9728" fill="white" transform="translate(0.0546875 -1)"/>
</clipPath>
<clipPath id="clip8_7601_6991">
<rect width="124.711" height="30" fill="white" transform="translate(0.0546875 -1)"/>
</clipPath>
</defs>
</svg>
