<svg width="26" height="26" viewBox="0 0 26 26" fill="none" xmlns="http://www.w3.org/2000/svg">
<path fill-rule="evenodd" clip-rule="evenodd" d="M1.50781 4.14902C1.50781 4.52473 1.80946 4.82929 2.18157 4.82929H4.05853C4.4036 4.82929 4.69289 5.09254 4.72865 5.43906L6.02262 17.9774C6.12991 19.0171 6.99779 19.8068 8.033 19.8068H21.0059C21.378 19.8068 21.6796 19.5022 21.6796 19.1265C21.6796 18.7508 21.378 18.4462 21.0059 18.4462H8.033C7.68793 18.4462 7.39864 18.183 7.36288 17.8364L7.278 17.014L20.2952 15.7823C20.7034 15.7437 21.0467 15.4598 21.1612 15.0661L23.3697 7.47383C23.5558 6.83398 23.0758 6.19453 22.4095 6.19453H6.16143L6.06891 5.29807C5.96163 4.25846 5.09374 3.46875 4.05853 3.46875H2.18157C1.80946 3.46875 1.50781 3.77332 1.50781 4.14902Z" fill="white"/>
<path fill-rule="evenodd" clip-rule="evenodd" d="M8.91783 23.8852C9.66204 23.8852 10.2653 23.276 10.2653 22.5246C10.2653 21.7732 9.66204 21.1641 8.91783 21.1641C8.17362 21.1641 7.57031 21.7732 7.57031 22.5246C7.57031 23.276 8.17362 23.8852 8.91783 23.8852Z" fill="white"/>
<path fill-rule="evenodd" clip-rule="evenodd" d="M18.3553 23.8852C19.0995 23.8852 19.7028 23.276 19.7028 22.5246C19.7028 21.7732 19.0995 21.1641 18.3553 21.1641C17.6111 21.1641 17.0078 21.7732 17.0078 22.5246C17.0078 23.276 17.6111 23.8852 18.3553 23.8852Z" fill="white"/>
</svg>
